<svg width="64" height="64" viewBox="0 0 64 64" fill="none" xmlns="http://www.w3.org/2000/svg">
<rect width="64" height="64" rx="3" fill="#F19B37"/>
<path d="M47 32C47 31.6022 47.158 31.2206 47.4393 30.9393C47.7206 30.658 48.1022 30.5 48.5 30.5C48.8978 30.5 49.2794 30.658 49.5607 30.9393C49.842 31.2206 50 31.6022 50 32V48.5C50 48.8978 49.842 49.2794 49.5607 49.5607C49.2794 49.842 48.8978 50 48.5 50H15.5C15.1022 50 14.7206 49.842 14.4393 49.5607C14.158 49.2794 14 48.8978 14 48.5V15.5C14 15.1022 14.158 14.7206 14.4393 14.4393C14.7206 14.158 15.1022 14 15.5 14H32C32.3978 14 32.7794 14.158 33.0607 14.4393C33.342 14.7206 33.5 15.1022 33.5 15.5C33.5 15.8978 33.342 16.2794 33.0607 16.5607C32.7794 16.842 32.3978 17 32 17H17V47H47V32Z" fill="white"/>
<path d="M30.0289 33.9798L32.5039 33.6258L47.7079 18.4248C47.8512 18.2864 47.9655 18.1209 48.0441 17.9379C48.1227 17.7549 48.1641 17.558 48.1658 17.3589C48.1675 17.1597 48.1296 16.9622 48.0542 16.7778C47.9787 16.5935 47.8674 16.426 47.7265 16.2852C47.5857 16.1443 47.4182 16.033 47.2339 15.9575C47.0495 15.8821 46.852 15.8442 46.6528 15.8459C46.4537 15.8476 46.2568 15.889 46.0738 15.9676C45.8908 16.0462 45.7253 16.1605 45.5869 16.3038L30.3799 31.5048L30.0259 33.9798H30.0289ZM49.8289 14.1798C50.2471 14.5977 50.5788 15.0939 50.8051 15.64C51.0315 16.1862 51.148 16.7716 51.148 17.3628C51.148 17.954 51.0315 18.5394 50.8051 19.0855C50.5788 19.6317 50.2471 20.1279 49.8289 20.5458L34.2739 36.1008C34.0446 36.331 33.7466 36.4805 33.4249 36.5268L28.475 37.2348C28.2443 37.2679 28.009 37.2468 27.7879 37.1732C27.5668 37.0996 27.3659 36.9755 27.2011 36.8107C27.0363 36.6459 26.9121 36.4449 26.8385 36.2238C26.7649 36.0027 26.7438 35.7675 26.777 35.5368L27.485 30.5868C27.5304 30.2655 27.6788 29.9676 27.908 29.7378L43.4659 14.1828C44.3098 13.3392 45.4542 12.8652 46.6474 12.8652C47.8407 12.8652 48.985 13.3392 49.8289 14.1828V14.1798Z" fill="white"/>
</svg>
